<svg xmlns="http://www.w3.org/2000/svg" xmlns:svg="http://www.w3.org/2000/svg" id="svg8" width="50mm" height="150mm" version="1.1" viewBox="0 0 50 150"><defs id="defs2"><marker style="overflow:visible" id="marker8614" orient="auto" refX="0" refY="0"><path style="fill:#fff;fill-opacity:1;fill-rule:evenodd;stroke:#fff;stroke-width:1.00000003pt;stroke-opacity:1" id="path8612" d="M 5.77,0 -2.88,5 V -5 Z" transform="scale(0.4)"/></marker><marker style="overflow:visible" id="marker8538" orient="auto" refX="0" refY="0"><path style="fill:#fff;fill-opacity:1;fill-rule:evenodd;stroke:#fff;stroke-width:1.00000003pt;stroke-opacity:1" id="path8536" d="M 5.77,0 -2.88,5 V -5 Z" transform="scale(-0.4)"/></marker><marker id="marker9923" orient="auto" refX="0" refY="0" style="overflow:visible"><path id="path9921" d="M 8.7185878,4.0337352 -2.2072895,0.01601326 8.7185884,-4.0017078 c -1.7454984,2.3720609 -1.7354408,5.6174519 -6e-7,8.035443 z" transform="scale(0.6)" style="fill:#fff;fill-opacity:1;fill-rule:evenodd;stroke:#fff;stroke-width:.625;stroke-linejoin:round;stroke-opacity:1"/></marker><marker id="Arrow2Mend" orient="auto" refX="0" refY="0" style="overflow:visible"><path id="path8461" d="M 8.7185878,4.0337352 -2.2072895,0.01601326 8.7185884,-4.0017078 c -1.7454984,2.3720609 -1.7354408,5.6174519 -6e-7,8.035443 z" transform="scale(-0.6)" style="fill:#fff;fill-opacity:1;fill-rule:evenodd;stroke:#fff;stroke-width:.625;stroke-linejoin:round;stroke-opacity:1"/></marker><marker id="Arrow2Mstart" orient="auto" refX="0" refY="0" style="overflow:visible"><path id="path8458" d="M 8.7185878,4.0337352 -2.2072895,0.01601326 8.7185884,-4.0017078 c -1.7454984,2.3720609 -1.7354408,5.6174519 -6e-7,8.035443 z" transform="scale(0.6)" style="fill:#fff;fill-opacity:1;fill-rule:evenodd;stroke:#fff;stroke-width:.625;stroke-linejoin:round;stroke-opacity:1"/></marker><marker style="overflow:visible" id="marker9470" orient="auto" refX="0" refY="0"><path style="fill:#fff;fill-opacity:1;fill-rule:evenodd;stroke:#fff;stroke-width:.625;stroke-linejoin:round;stroke-opacity:1" id="path9468" d="M 8.7185878,4.0337352 -2.2072895,0.01601326 8.7185884,-4.0017078 c -1.7454984,2.3720609 -1.7354408,5.6174519 -6e-7,8.035443 z" transform="matrix(-0.3,0,0,-0.3,0.69,0)"/></marker><marker style="overflow:visible" id="marker9424" orient="auto" refX="0" refY="0"><path style="fill:#fff;fill-opacity:1;fill-rule:evenodd;stroke:#fff;stroke-width:.625;stroke-linejoin:round;stroke-opacity:1" id="path9422" d="M 8.7185878,4.0337352 -2.2072895,0.01601326 8.7185884,-4.0017078 c -1.7454984,2.3720609 -1.7354408,5.6174519 -6e-7,8.035443 z" transform="matrix(0.3,0,0,0.3,-0.69,0)"/></marker><marker id="Arrow1Mstart" orient="auto" refX="0" refY="0" style="overflow:visible"><path id="path8440" d="M 0,0 5,-5 -12.5,0 5,5 Z" transform="matrix(0.4,0,0,0.4,4,0)" style="fill:#fff;fill-opacity:1;fill-rule:evenodd;stroke:#fff;stroke-width:1.00000003pt;stroke-opacity:1"/></marker><marker id="TriangleOutL" orient="auto" refX="0" refY="0" style="overflow:visible"><path id="path8576" d="M 5.77,0 -2.88,5 V -5 Z" transform="scale(0.8)" style="fill:#fff;fill-opacity:1;fill-rule:evenodd;stroke:#fff;stroke-width:1.00000003pt;stroke-opacity:1"/></marker><marker id="TriangleInL" orient="auto" refX="0" refY="0" style="overflow:visible"><path id="path8567" d="M 5.77,0 -2.88,5 V -5 Z" transform="scale(-0.8)" style="fill:#fff;fill-opacity:1;fill-rule:evenodd;stroke:#fff;stroke-width:1.00000003pt;stroke-opacity:1"/></marker></defs><metadata id="metadata5"/><g id="layer1" transform="translate(-59.999998,-57)"><text style="font-style:oblique;font-variant:normal;font-weight:700;font-stretch:normal;font-size:20.57400131px;line-height:125%;font-family:'DejaVu Sans';-inkscape-font-specification:'DejaVu Sans Bold Oblique';text-align:start;letter-spacing:0;word-spacing:0;text-anchor:start;fill:#fff;fill-opacity:1;stroke:none;stroke-width:.26458332px;stroke-linecap:butt;stroke-linejoin:miter;stroke-opacity:1" id="text8560" x="76.739" y="93.304" xml:space="preserve"><tspan id="tspan8558" x="76.739" y="93.304" style="font-style:oblique;font-variant:normal;font-weight:700;font-stretch:normal;font-size:20.57400131px;font-family:'DejaVu Sans';-inkscape-font-specification:'DejaVu Sans Bold Oblique';text-align:start;text-anchor:start;fill:#fff;stroke-width:.26458332px">A</tspan><tspan style="font-style:oblique;font-variant:normal;font-weight:700;font-stretch:normal;font-size:20.57400131px;font-family:'DejaVu Sans';-inkscape-font-specification:'DejaVu Sans Bold Oblique';text-align:start;text-anchor:start;fill:#fff;stroke-width:.26458332px" id="tspan8562" x="76.739" y="119.021">D</tspan><tspan style="font-style:oblique;font-variant:normal;font-weight:700;font-stretch:normal;font-size:20.57400131px;font-family:'DejaVu Sans';-inkscape-font-specification:'DejaVu Sans Bold Oblique';text-align:start;text-anchor:start;fill:#fff;stroke-width:.26458332px" id="tspan8564" x="76.739" y="144.739">V.</tspan></text><path style="opacity:1;fill:#fff;fill-opacity:1;stroke:none;stroke-width:1;stroke-linecap:butt;stroke-linejoin:miter;stroke-miterlimit:4;stroke-dasharray:none;stroke-dashoffset:0;stroke-opacity:1" id="path8568" d="m 85.084602,154.05774 c -4.167529,-0.0223 -0.480916,3.48589 -4.24523,5.30715 -3.764312,1.82128 -4.106432,-3.30495 -6.721962,-8.5e-4 -2.61553,3.30412 2.376484,2.55635 1.427774,6.68889 -0.94871,4.13255 -5.097666,1.20865 -4.191651,5.35112 0.906015,4.14247 3.444154,-0.29848 6.025446,3.03344 2.581291,3.33193 -2.250566,4.81237 1.494746,6.67382 3.745312,1.86146 1.918612,-2.92849 6.086139,-2.90618 4.167528,0.0223 2.291691,4.79234 6.056002,2.97107 3.764314,-1.82128 -1.052137,-3.35339 1.563395,-6.6575 2.61553,-3.30412 5.10813,1.16355 6.056835,-2.96899 0.948717,-4.13254 -3.230381,-1.25301 -4.136395,-5.39548 -0.906015,-4.14246 4.077715,-3.34148 1.496421,-6.67341 -2.581293,-3.33192 -2.976232,1.79071 -6.721544,-0.0707 -3.745312,-1.86145 -0.02245,-5.33007 -4.189976,-5.35237 z m -0.07367,11.20577 a 3.04264,3.04264 0 0 1 3.042652,3.04266 3.04264,3.04264 0 0 1 -3.042652,3.04265 3.04264,3.04264 0 0 1 -3.042652,-3.04265 3.04264,3.04264 0 0 1 3.042652,-3.04266 z"/></g></svg>