<svg xmlns="http://www.w3.org/2000/svg" xmlns:svg="http://www.w3.org/2000/svg" id="svg8" width="100mm" height="100mm" version="1.1" viewBox="0 0 100 100"><defs id="defs2"><marker style="overflow:visible" id="marker8614" orient="auto" refX="0" refY="0"><path style="fill:#fff;fill-opacity:1;fill-rule:evenodd;stroke:#fff;stroke-width:1.00000003pt;stroke-opacity:1" id="path8612" d="M 5.77,0 -2.88,5 V -5 Z" transform="scale(0.4)"/></marker><marker style="overflow:visible" id="marker8538" orient="auto" refX="0" refY="0"><path style="fill:#fff;fill-opacity:1;fill-rule:evenodd;stroke:#fff;stroke-width:1.00000003pt;stroke-opacity:1" id="path8536" d="M 5.77,0 -2.88,5 V -5 Z" transform="scale(-0.4)"/></marker><marker id="TriangleOutM" orient="auto" refX="0" refY="0" style="overflow:visible"><path id="path8579" d="M 5.77,0 -2.88,5 V -5 Z" transform="scale(0.4)" style="fill:#fff;fill-opacity:1;fill-rule:evenodd;stroke:#fff;stroke-width:1.00000003pt;stroke-opacity:1"/></marker><marker id="TriangleInM" orient="auto" refX="0" refY="0" style="overflow:visible"><path id="path8570" d="M 5.77,0 -2.88,5 V -5 Z" transform="scale(-0.4)" style="fill:#fff;fill-opacity:1;fill-rule:evenodd;stroke:#fff;stroke-width:1.00000003pt;stroke-opacity:1"/></marker><marker id="marker9923" orient="auto" refX="0" refY="0" style="overflow:visible"><path id="path9921" d="M 8.7185878,4.0337352 -2.2072895,0.01601326 8.7185884,-4.0017078 c -1.7454984,2.3720609 -1.7354408,5.6174519 -6e-7,8.035443 z" transform="scale(0.6)" style="fill:#fff;fill-opacity:1;fill-rule:evenodd;stroke:#fff;stroke-width:.625;stroke-linejoin:round;stroke-opacity:1"/></marker><marker id="Arrow2Mend" orient="auto" refX="0" refY="0" style="overflow:visible"><path id="path8461" d="M 8.7185878,4.0337352 -2.2072895,0.01601326 8.7185884,-4.0017078 c -1.7454984,2.3720609 -1.7354408,5.6174519 -6e-7,8.035443 z" transform="scale(-0.6)" style="fill:#fff;fill-opacity:1;fill-rule:evenodd;stroke:#fff;stroke-width:.625;stroke-linejoin:round;stroke-opacity:1"/></marker><marker id="Arrow2Mstart" orient="auto" refX="0" refY="0" style="overflow:visible"><path id="path8458" d="M 8.7185878,4.0337352 -2.2072895,0.01601326 8.7185884,-4.0017078 c -1.7454984,2.3720609 -1.7354408,5.6174519 -6e-7,8.035443 z" transform="scale(0.6)" style="fill:#fff;fill-opacity:1;fill-rule:evenodd;stroke:#fff;stroke-width:.625;stroke-linejoin:round;stroke-opacity:1"/></marker><marker style="overflow:visible" id="marker9470" orient="auto" refX="0" refY="0"><path style="fill:#fff;fill-opacity:1;fill-rule:evenodd;stroke:#fff;stroke-width:.625;stroke-linejoin:round;stroke-opacity:1" id="path9468" d="M 8.7185878,4.0337352 -2.2072895,0.01601326 8.7185884,-4.0017078 c -1.7454984,2.3720609 -1.7354408,5.6174519 -6e-7,8.035443 z" transform="matrix(-0.3,0,0,-0.3,0.69,0)"/></marker><marker style="overflow:visible" id="marker9424" orient="auto" refX="0" refY="0"><path style="fill:#fff;fill-opacity:1;fill-rule:evenodd;stroke:#fff;stroke-width:.625;stroke-linejoin:round;stroke-opacity:1" id="path9422" d="M 8.7185878,4.0337352 -2.2072895,0.01601326 8.7185884,-4.0017078 c -1.7454984,2.3720609 -1.7354408,5.6174519 -6e-7,8.035443 z" transform="matrix(0.3,0,0,0.3,-0.69,0)"/></marker><marker id="Arrow1Mstart" orient="auto" refX="0" refY="0" style="overflow:visible"><path id="path8440" d="M 0,0 5,-5 -12.5,0 5,5 Z" transform="matrix(0.4,0,0,0.4,4,0)" style="fill:#fff;fill-opacity:1;fill-rule:evenodd;stroke:#fff;stroke-width:1.00000003pt;stroke-opacity:1"/></marker><marker id="TriangleOutL" orient="auto" refX="0" refY="0" style="overflow:visible"><path id="path8576" d="M 5.77,0 -2.88,5 V -5 Z" transform="scale(0.8)" style="fill:#fff;fill-opacity:1;fill-rule:evenodd;stroke:#fff;stroke-width:1.00000003pt;stroke-opacity:1"/></marker><marker id="TriangleInL" orient="auto" refX="0" refY="0" style="overflow:visible"><path id="path8567" d="M 5.77,0 -2.88,5 V -5 Z" transform="scale(-0.8)" style="fill:#fff;fill-opacity:1;fill-rule:evenodd;stroke:#fff;stroke-width:1.00000003pt;stroke-opacity:1"/></marker></defs><metadata id="metadata5"/><g id="layer1" transform="translate(-59.999998,-107)"><path style="fill:none;fill-rule:evenodd;stroke:#fff;stroke-width:6;stroke-linecap:butt;stroke-linejoin:miter;stroke-miterlimit:4;stroke-dasharray:none;stroke-opacity:1" id="path8424" d="m 72.999999,117 v 80"/><path id="path8426" d="m 148,117 v 80" style="fill:none;fill-opacity:1;fill-rule:evenodd;stroke:#fff;stroke-width:6;stroke-linecap:butt;stroke-linejoin:miter;stroke-miterlimit:4;stroke-dasharray:none;stroke-opacity:1"/><path style="fill:none;fill-opacity:1;fill-rule:evenodd;stroke:#fff;stroke-width:4;stroke-linecap:butt;stroke-linejoin:miter;stroke-miterlimit:4;stroke-dasharray:none;stroke-opacity:1;marker-start:url(#TriangleInM);marker-end:url(#TriangleOutM)" id="path8432" d="M 87.113439,142.15138 H 133.56041"/><path id="path9420" d="m 79.86528,184.07963 h 62.36081" style="fill:none;fill-opacity:1;fill-rule:evenodd;stroke:#fff;stroke-width:4.09999943;stroke-linecap:butt;stroke-linejoin:miter;stroke-miterlimit:4;stroke-dasharray:4.10000002,4.10000002;stroke-dashoffset:0;stroke-opacity:1"/><g id="g8730"><path id="path8736" d="m 77.881439,142.15138 13.84,-8 v 16 z" style="fill:#fff;fill-opacity:1;fill-rule:evenodd;stroke:#fff;stroke-width:1.60000008pt;stroke-opacity:1"/><path id="path8738" d="m 142.79241,142.15138 -13.84,8 v -16 z" style="fill:#fff;fill-opacity:1;fill-rule:evenodd;stroke:#fff;stroke-width:1.60000008pt;stroke-opacity:1"/></g></g></svg>