<svg xmlns="http://www.w3.org/2000/svg" xmlns:svg="http://www.w3.org/2000/svg" id="svg8" width="100mm" height="100mm" version="1.1" viewBox="0 0 100 100"><defs id="defs2"><marker style="overflow:visible" id="marker8614" orient="auto" refX="0" refY="0"><path style="fill:#fff;fill-opacity:1;fill-rule:evenodd;stroke:#fff;stroke-width:1.00000003pt;stroke-opacity:1" id="path8612" d="M 5.77,0 -2.88,5 V -5 Z" transform="scale(0.4)"/></marker><marker style="overflow:visible" id="marker8538" orient="auto" refX="0" refY="0"><path style="fill:#fff;fill-opacity:1;fill-rule:evenodd;stroke:#fff;stroke-width:1.00000003pt;stroke-opacity:1" id="path8536" d="M 5.77,0 -2.88,5 V -5 Z" transform="scale(-0.4)"/></marker><marker id="marker9923" orient="auto" refX="0" refY="0" style="overflow:visible"><path id="path9921" d="M 8.7185878,4.0337352 -2.2072895,0.01601326 8.7185884,-4.0017078 c -1.7454984,2.3720609 -1.7354408,5.6174519 -6e-7,8.035443 z" transform="scale(0.6)" style="fill:#fff;fill-opacity:1;fill-rule:evenodd;stroke:#fff;stroke-width:.625;stroke-linejoin:round;stroke-opacity:1"/></marker><marker id="Arrow2Mend" orient="auto" refX="0" refY="0" style="overflow:visible"><path id="path8461" d="M 8.7185878,4.0337352 -2.2072895,0.01601326 8.7185884,-4.0017078 c -1.7454984,2.3720609 -1.7354408,5.6174519 -6e-7,8.035443 z" transform="scale(-0.6)" style="fill:#fff;fill-opacity:1;fill-rule:evenodd;stroke:#fff;stroke-width:.625;stroke-linejoin:round;stroke-opacity:1"/></marker><marker id="Arrow2Mstart" orient="auto" refX="0" refY="0" style="overflow:visible"><path id="path8458" d="M 8.7185878,4.0337352 -2.2072895,0.01601326 8.7185884,-4.0017078 c -1.7454984,2.3720609 -1.7354408,5.6174519 -6e-7,8.035443 z" transform="scale(0.6)" style="fill:#fff;fill-opacity:1;fill-rule:evenodd;stroke:#fff;stroke-width:.625;stroke-linejoin:round;stroke-opacity:1"/></marker><marker style="overflow:visible" id="marker9470" orient="auto" refX="0" refY="0"><path style="fill:#fff;fill-opacity:1;fill-rule:evenodd;stroke:#fff;stroke-width:.625;stroke-linejoin:round;stroke-opacity:1" id="path9468" d="M 8.7185878,4.0337352 -2.2072895,0.01601326 8.7185884,-4.0017078 c -1.7454984,2.3720609 -1.7354408,5.6174519 -6e-7,8.035443 z" transform="matrix(-0.3,0,0,-0.3,0.69,0)"/></marker><marker style="overflow:visible" id="marker9424" orient="auto" refX="0" refY="0"><path style="fill:#fff;fill-opacity:1;fill-rule:evenodd;stroke:#fff;stroke-width:.625;stroke-linejoin:round;stroke-opacity:1" id="path9422" d="M 8.7185878,4.0337352 -2.2072895,0.01601326 8.7185884,-4.0017078 c -1.7454984,2.3720609 -1.7354408,5.6174519 -6e-7,8.035443 z" transform="matrix(0.3,0,0,0.3,-0.69,0)"/></marker><marker id="Arrow1Mstart" orient="auto" refX="0" refY="0" style="overflow:visible"><path id="path8440" d="M 0,0 5,-5 -12.5,0 5,5 Z" transform="matrix(0.4,0,0,0.4,4,0)" style="fill:#fff;fill-opacity:1;fill-rule:evenodd;stroke:#fff;stroke-width:1.00000003pt;stroke-opacity:1"/></marker><marker id="TriangleOutL" orient="auto" refX="0" refY="0" style="overflow:visible"><path id="path8576" d="M 5.77,0 -2.88,5 V -5 Z" transform="scale(0.8)" style="fill:#fff;fill-opacity:1;fill-rule:evenodd;stroke:#fff;stroke-width:1.00000003pt;stroke-opacity:1"/></marker><marker id="TriangleInL" orient="auto" refX="0" refY="0" style="overflow:visible"><path id="path8567" d="M 5.77,0 -2.88,5 V -5 Z" transform="scale(-0.8)" style="fill:#fff;fill-opacity:1;fill-rule:evenodd;stroke:#fff;stroke-width:1.00000003pt;stroke-opacity:1"/></marker></defs><metadata id="metadata5"/><g id="layer1" transform="translate(-59.999998,-107)"><g style="font-style:normal;font-variant:normal;font-weight:700;font-stretch:semi-condensed;font-size:1.76388884px;line-height:125%;font-family:'DejaVu Sans';-inkscape-font-specification:'DejaVu Sans Bold Semi-Condensed';letter-spacing:0;word-spacing:0;fill:#8a8e96;fill-opacity:1;stroke:none;stroke-width:.26458332px;stroke-linecap:butt;stroke-linejoin:miter;stroke-opacity:1" id="text8595" aria-label="LOG" transform="translate(-2.39e-4,-3.2244934)"><path style="font-style:normal;font-variant:normal;font-weight:700;font-stretch:semi-condensed;font-size:35.27777863px;font-family:'DejaVu Sans';-inkscape-font-specification:'DejaVu Sans Bold Semi-Condensed';text-align:center;text-anchor:middle;fill:#8a8e96;fill-opacity:1;stroke-width:.26458332px" id="path26803" d="m 77.419237,123.94899 h 5.977241 v 20.70502 h 10.47309 v 5.01262 H 77.419237 Z"/><path style="font-style:normal;font-variant:normal;font-weight:700;font-stretch:semi-condensed;font-size:35.27777863px;font-family:'DejaVu Sans';-inkscape-font-specification:'DejaVu Sans Bold Semi-Condensed';text-align:center;text-anchor:middle;fill:#8a8e96;fill-opacity:1;stroke-width:.26458332px" id="path26805" d="m 107.01261,128.28981 q -2.72163,0 -4.23747,2.23931 -1.49862,2.23931 -1.49862,6.30452 0,4.04799 1.49862,6.2873 1.51584,2.23932 4.23747,2.23932 2.73885,0 4.23747,-2.23932 1.51584,-2.23931 1.51584,-6.2873 0,-4.06521 -1.51584,-6.30452 -1.49862,-2.23931 -4.23747,-2.23931 z m 0,-4.80591 q 5.58105,0 8.73332,3.54845 3.16948,3.54845 3.16948,9.80129 0,6.23563 -3.16948,9.78408 -3.15227,3.54844 -8.73332,3.54844 -5.56383,0 -8.733319,-3.54844 -3.169488,-3.54845 -3.169488,-9.78408 0,-6.25284 3.169488,-9.80129 3.169489,-3.54845 8.733319,-3.54845 z"/><path style="font-style:normal;font-variant:normal;font-weight:700;font-stretch:semi-condensed;font-size:35.27777863px;font-family:'DejaVu Sans';-inkscape-font-specification:'DejaVu Sans Bold Semi-Condensed';text-align:center;text-anchor:middle;fill:#8a8e96;fill-opacity:1;stroke-width:.26458332px" id="path26807" d="m 144.25409,147.7546 q -2.23931,1.20578 -4.65088,1.80867 -2.39434,0.60289 -4.94371,0.60289 -5.78776,0 -9.16395,-3.58289 -3.3762,-3.60013 -3.3762,-9.74963 0,-6.21839 3.42787,-9.78407 3.4451,-3.56567 9.43956,-3.56567 2.30822,0 4.42695,0.48231 2.11874,0.48232 3.99631,1.42972 v 5.32267 q -1.94648,-1.22301 -3.8585,-1.8259 -1.91203,-0.60289 -3.84128,-0.60289 -3.56568,0 -5.49493,2.22208 -1.92926,2.20487 -1.92926,6.32175 0,4.08244 1.86036,6.30453 1.86035,2.22209 5.28822,2.22209 0.93017,0 1.72255,-0.12058 0.80959,-0.13781 1.42971,-0.41341 v -4.99539 h -3.63458 v -4.44418 h 9.30176 z"/></g><g style="font-style:normal;font-variant:normal;font-weight:400;font-stretch:normal;font-size:1.76388884px;line-height:125%;font-family:'DejaVu Sans';-inkscape-font-specification:'DejaVu Sans';letter-spacing:0;word-spacing:0;fill:#000;fill-opacity:1;stroke:none;stroke-width:.26458332px;stroke-linecap:butt;stroke-linejoin:miter;stroke-opacity:1" id="text8591" aria-label="Y" transform="translate(0,-1.0583333)"><path style="font-style:normal;font-variant:normal;font-weight:700;font-stretch:normal;font-size:45.86111069px;font-family:'DejaVu Sans';-inkscape-font-specification:'DejaVu Sans Bold';text-align:center;text-anchor:middle;fill:#fff;stroke-width:.26458332px" id="path35942" d="m 93.796176,158.56707 h 9.427504 l 7.61366,11.91314 7.61366,-11.91314 h 9.4499 l -12.74169,19.34766 V 192 h -8.62135 v -14.08527 z"/></g></g></svg>