<svg xmlns="http://www.w3.org/2000/svg" xmlns:svg="http://www.w3.org/2000/svg" xmlns:xlink="http://www.w3.org/1999/xlink" id="svg4034" width="64" height="64" enable-background="new" version="1.1"><defs id="defs4036"><linearGradient id="linearGradient4244-6"><stop id="stop4428" offset="0" style="stop-color:#27ab5f;stop-opacity:1"/><stop id="stop4430" offset="1" style="stop-color:#249a56;stop-opacity:1"/></linearGradient><filter style="color-interpolation-filters:sRGB" id="filter4400" width="1.048" height="1.048" x="-.024" y="-.024"><feGaussianBlur id="feGaussianBlur4402" stdDeviation=".15"/></filter><linearGradient id="linearGradient4432" x1="9.884" x2="10.275" y1="-9.899" y2="27.931" gradientUnits="userSpaceOnUse" xlink:href="#linearGradient4244-6"/><filter style="color-interpolation-filters:sRGB" id="filter4442" width="1.023" height="1.025" x="-.012" y="-.012"><feGaussianBlur id="feGaussianBlur4444" stdDeviation=".145"/></filter></defs><metadata id="metadata4039"/><g id="g4263" style="display:inline"><g id="g4189"><path id="path4273" d="m 10,-30 c -1.108,0 -2,0.892 -2,2 l 0,56 c 0,1.108 0.892,2 2,2 l 44,0 c 1.108,0 2,-0.892 2,-2 l 0,-43 c 0,-1 -1,-2 -1,-2 L 43,-29 c 0,0 -1,-1 -2,-1 z" transform="translate(0,32)" style="display:inline;opacity:1;fill:#34d07b;fill-opacity:1;stroke:none;stroke-opacity:1"/><path id="path4275" d="m 10,-29 c -0.554,0 -1,0.446 -1,1 l 0,56 c 0,0.554 0.446,1 1,1 l 44,0 c 0.554,0 1,-0.446 1,-1 l 0,-43 -13,-1 -1,-13 z" transform="translate(0,32)" style="display:inline;opacity:1;fill:url(#linearGradient4432);fill-opacity:1;fill-rule:evenodd;stroke:none;stroke-width:1;stroke-miterlimit:4;stroke-dasharray:none;stroke-opacity:1"/><path id="path4339-5" d="m 40,-29 0,11.999999 c 0,2 1,3 3,3 l 11.999999,0 0,-1 L 41,-29 Z" transform="translate(0,32)" style="display:inline;opacity:.12999998;fill:#222;fill-opacity:1;fill-rule:evenodd;stroke:none;stroke-width:1px;stroke-linecap:butt;stroke-linejoin:miter;stroke-opacity:1;filter:url(#filter4400)"/><path id="path4339" d="m 41,-29 0,12 c 0,1.03125 0.9375,2 2,2 l 12,0 0,-1 -13,-13 z" transform="translate(0,32)" style="display:inline;fill:#34d07b;fill-opacity:1;fill-rule:evenodd;stroke:none;stroke-width:1px;stroke-linecap:butt;stroke-linejoin:miter;stroke-opacity:1"/><path id="path4436" d="m 32,22 -15,8 0,17.5 5,2.5 4.999999,-2.5 0,-6 L 22,39 l 0,-6 10,-5.5 10,5.5 0,6 -4.999999,2.5 0,6 L 42,50 47,47.5 47,30 Z" style="display:inline;color:#000;font-style:normal;font-variant:normal;font-weight:400;font-stretch:normal;font-size:medium;line-height:normal;font-family:sans-serif;text-indent:0;text-align:start;text-decoration:none;text-decoration-line:none;text-decoration-style:solid;text-decoration-color:#000;letter-spacing:normal;word-spacing:normal;text-transform:none;direction:ltr;block-progression:tb;writing-mode:lr-tb;baseline-shift:baseline;text-anchor:start;white-space:normal;clip-rule:nonzero;overflow:visible;visibility:visible;opacity:.15;isolation:auto;mix-blend-mode:normal;color-interpolation:sRGB;color-interpolation-filters:linearRGB;solid-color:#000;solid-opacity:1;fill:#000;fill-opacity:1;fill-rule:nonzero;stroke:none;stroke-width:.97797471;stroke-linecap:butt;stroke-linejoin:miter;stroke-miterlimit:4;stroke-dasharray:none;stroke-dashoffset:0;stroke-opacity:1;filter:url(#filter4442);color-rendering:auto;image-rendering:auto;shape-rendering:auto;text-rendering:auto;enable-background:accumulate"/><path style="color:#000;font-style:normal;font-variant:normal;font-weight:400;font-stretch:normal;font-size:medium;line-height:normal;font-family:sans-serif;text-indent:0;text-align:start;text-decoration:none;text-decoration-line:none;text-decoration-style:solid;text-decoration-color:#000;letter-spacing:normal;word-spacing:normal;text-transform:none;direction:ltr;block-progression:tb;writing-mode:lr-tb;baseline-shift:baseline;text-anchor:start;white-space:normal;clip-rule:nonzero;display:inline;overflow:visible;visibility:visible;opacity:1;isolation:auto;mix-blend-mode:normal;color-interpolation:sRGB;color-interpolation-filters:linearRGB;solid-color:#000;solid-opacity:1;fill:#fff;fill-opacity:1;fill-rule:nonzero;stroke:none;stroke-width:.97797471;stroke-linecap:butt;stroke-linejoin:miter;stroke-miterlimit:4;stroke-dasharray:none;stroke-dashoffset:0;stroke-opacity:1;filter:url(#filter5497);color-rendering:auto;image-rendering:auto;shape-rendering:auto;text-rendering:auto;enable-background:accumulate" id="path4265" d="m 32,20 -15,8 0,17.5 5,2.5 4.999999,-2.5 0,-6 L 22,37 l 0,-6 10,-5.5 10,5.5 0,6 -4.999999,2.5 0,6 L 42,48 47,45.5 47,28 Z"/></g></g></svg>